<svg version="1.1" id="Layer_1" xmlns="http://www.w3.org/2000/svg" xmlns:xlink="http://www.w3.org/1999/xlink" x="0px" y="0px"
	 width="100%" viewBox="0 0 501 492" enable-background="new 0 0 501 492" xml:space="preserve">
<path fill="#FCFCFC" opacity="1.000000" stroke="none" 
	d="
M1.000000,196.000000 
	C1.000000,130.682968 1.000000,65.865944 1.000000,1.024456 
	C167.941696,1.024456 334.883392,1.024456 501.912537,1.024456 
	C501.912537,164.900421 501.912537,328.800903 501.912537,492.850708 
	C335.000092,492.850708 168.000061,492.850708 1.000000,492.850708 
	C1.000000,394.116486 1.000000,295.308258 1.000000,196.000000 
M22.115189,353.499969 
	C22.115210,387.492462 22.112286,421.484985 22.116507,455.477478 
	C22.118580,472.188416 30.135307,480.139740 46.992027,480.140045 
	C186.627701,480.142578 326.263367,480.142670 465.899048,480.139862 
	C482.195648,480.139557 490.239807,472.179718 490.240356,456.031158 
	C490.245117,316.062225 490.244873,176.093292 490.240784,36.124359 
	C490.240326,19.996815 482.146912,11.942680 465.956146,11.942357 
	C326.153839,11.939562 186.351532,11.939360 46.549229,11.942543 
	C30.224710,11.942915 22.116758,20.120211 22.116402,36.570061 
	C22.114107,141.880020 22.115206,247.189972 22.115189,353.499969 
z"/>
<path fill="#010101" opacity="1.000000" stroke="none" 
	d="
M22.115189,352.999939 
	C22.115206,247.189972 22.114107,141.880020 22.116402,36.570061 
	C22.116758,20.120211 30.224710,11.942915 46.549229,11.942543 
	C186.351532,11.939360 326.153839,11.939562 465.956146,11.942357 
	C482.146912,11.942680 490.240326,19.996815 490.240784,36.124359 
	C490.244873,176.093292 490.245117,316.062225 490.240356,456.031158 
	C490.239807,472.179718 482.195648,480.139557 465.899048,480.139862 
	C326.263367,480.142670 186.627701,480.142578 46.992027,480.140045 
	C30.135307,480.139740 22.118580,472.188416 22.116507,455.477478 
	C22.112286,421.484985 22.115210,387.492462 22.115189,352.999939 
M188.994324,93.454536 
	C181.599075,96.478783 173.993210,99.075294 166.842514,102.596176 
	C117.814285,126.736862 83.837395,163.658493 70.432320,217.633087 
	C68.175415,226.720367 67.040855,236.086380 65.304169,245.790527 
	C77.099747,245.790527 87.524994,245.790527 98.171165,245.790527 
	C99.936287,213.681686 116.687988,190.072098 140.894684,170.983475 
	C164.308777,152.519882 191.394562,142.330048 220.543121,137.209564 
	C223.892914,136.621124 227.283844,136.266876 231.143875,135.737030 
	C230.576477,137.620667 230.295624,138.735748 229.908188,139.812485 
	C221.042679,164.450378 214.234314,189.642349 209.363495,215.370483 
	C201.346039,257.719604 200.657684,299.759521 214.084976,341.317139 
	C221.340988,363.774536 229.854584,385.600464 245.137863,404.027283 
	C269.960419,433.955505 303.323669,438.809540 335.943878,417.747833 
	C354.291290,405.901550 366.383179,388.236450 379.853790,371.816193 
	C380.020355,371.613159 379.929199,371.198730 379.997009,370.463593 
	C369.213593,362.292877 358.263702,353.996033 347.152893,345.577240 
	C345.915161,347.033875 344.963684,348.161377 344.003998,349.281891 
	C336.696503,357.813629 328.863617,365.702026 318.403931,370.426147 
	C310.501617,373.995209 302.701569,373.786469 296.681061,367.397125 
	C290.814819,361.171448 284.955780,354.458984 281.060486,346.941132 
	C266.053375,317.977722 257.718262,287.160217 258.389740,254.283844 
	C258.989166,224.933334 264.850159,196.421677 272.759033,168.292038 
	C275.803528,157.463623 279.417572,146.795364 282.707733,136.260315 
	C284.324921,136.260315 284.993866,136.175903 285.635559,136.272446 
	C315.734833,140.801010 343.779022,150.608994 368.404785,168.940720 
	C386.242096,182.219055 400.704346,198.374695 408.405426,219.564713 
	C411.441040,227.917496 412.980713,236.813965 415.288879,245.802734 
	C425.220245,245.802734 435.633301,245.802734 447.545319,245.802734 
	C445.091217,233.119736 443.793213,220.620560 440.195343,208.822754 
	C424.876678,158.591385 391.544678,123.769043 344.621887,101.942657 
	C294.370361,78.567902 242.464081,76.780182 188.994324,93.454536 
z"/>
<path fill="#FDFDFD" opacity="1.000000" stroke="none" 
	d="
M189.370361,93.327850 
	C242.464081,76.780182 294.370361,78.567902 344.621887,101.942657 
	C391.544678,123.769043 424.876678,158.591385 440.195343,208.822754 
	C443.793213,220.620560 445.091217,233.119736 447.545319,245.802734 
	C435.633301,245.802734 425.220245,245.802734 415.288879,245.802734 
	C412.980713,236.813965 411.441040,227.917496 408.405426,219.564713 
	C400.704346,198.374695 386.242096,182.219055 368.404785,168.940720 
	C343.779022,150.608994 315.734833,140.801010 285.635559,136.272446 
	C284.993866,136.175903 284.324921,136.260315 282.707733,136.260315 
	C279.417572,146.795364 275.803528,157.463623 272.759033,168.292038 
	C264.850159,196.421677 258.989166,224.933334 258.389740,254.283844 
	C257.718262,287.160217 266.053375,317.977722 281.060486,346.941132 
	C284.955780,354.458984 290.814819,361.171448 296.681061,367.397125 
	C302.701569,373.786469 310.501617,373.995209 318.403931,370.426147 
	C328.863617,365.702026 336.696503,357.813629 344.003998,349.281891 
	C344.963684,348.161377 345.915161,347.033875 347.152893,345.577240 
	C358.263702,353.996033 369.213593,362.292877 379.997009,370.463593 
	C379.929199,371.198730 380.020355,371.613159 379.853790,371.816193 
	C366.383179,388.236450 354.291290,405.901550 335.943878,417.747833 
	C303.323669,438.809540 269.960419,433.955505 245.137863,404.027283 
	C229.854584,385.600464 221.340988,363.774536 214.084976,341.317139 
	C200.657684,299.759521 201.346039,257.719604 209.363495,215.370483 
	C214.234314,189.642349 221.042679,164.450378 229.908188,139.812485 
	C230.295624,138.735748 230.576477,137.620667 231.143875,135.737030 
	C227.283844,136.266876 223.892914,136.621124 220.543121,137.209564 
	C191.394562,142.330048 164.308777,152.519882 140.894684,170.983475 
	C116.687988,190.072098 99.936287,213.681686 98.171165,245.790527 
	C87.524994,245.790527 77.099747,245.790527 65.304169,245.790527 
	C67.040855,236.086380 68.175415,226.720367 70.432320,217.633087 
	C83.837395,163.658493 117.814285,126.736862 166.842514,102.596176 
	C173.993210,99.075294 181.599075,96.478783 189.370361,93.327850 
z"/>
</svg>