<svg xmlns="http://www.w3.org/2000/svg" viewBox="0 0 512 512">
<rect width="512" height="512" fill="#1a1a1a"/>
<path fill="#FDFDFD" d="M189.370361,93.327850 C242.464081,76.780182 294.370361,78.567902 344.621887,101.942657 C391.544678,123.769043 424.876678,158.591385 440.195343,208.822754 C443.793213,220.620560 445.091217,233.119736 447.545319,245.802734 C435.633301,245.802734 425.220245,245.802734 415.288879,245.802734 C412.980713,236.813965 411.441040,227.917496 408.405426,219.564713 C400.704346,198.374695 386.242096,182.219055 368.404785,168.940720 C343.779022,150.608994 315.734833,140.801010 285.635559,136.272446 C284.993866,136.175903 284.324921,136.260315 282.707733,136.260315 C279.417572,146.795364 275.803528,157.463623 272.759033,168.292038 C264.850159,196.421677 258.989166,224.933334 258.389740,254.283844 C257.718262,287.160217 266.053375,317.977722 281.060486,346.941132 C284.955780,354.458984 290.814819,361.171448 296.681061,367.397125 C302.701569,373.786469 310.501617,373.995209 318.403931,370.426147 C328.863617,365.702026 336.696503,357.813629 344.003998,349.281891 C344.963684,348.161377 345.915161,347.033875 347.152893,345.577240 C358.263702,353.996033 369.213593,362.292877 379.997009,370.463593 C379.929199,371.198730 380.020355,371.613159 379.853790,371.816193 C366.383179,388.236450 354.291290,405.901550 335.943878,417.747833 C303.323669,438.809540 269.960419,433.955505 245.137863,404.027283 C229.854584,385.600464 221.340988,363.774536 214.084976,341.317139 C200.657684,299.759521 201.346039,257.719604 209.363495,215.370483 C214.234314,189.642349 221.042679,164.450378 229.908188,139.812485 C230.295624,138.735748 230.576477,137.620667 231.143875,135.737030 C227.283844,136.266876 223.892914,136.621124 220.543121,137.209564 C191.394562,142.330048 164.308777,152.519882 140.894684,170.983475 C116.687988,190.072098 99.936287,213.681686 98.171165,245.790527 C87.524994,245.790527 77.099747,245.790527 65.304169,245.790527 C67.040855,236.086380 68.175415,226.720367 70.432320,217.633087 C83.837395,163.658493 117.814285,126.736862 166.842514,102.596176 C173.993210,99.075294 181.599075,96.478783 189.370361,93.327850z" transform="translate(0, 10)"/>
</svg>
